<svg xmlns="http://www.w3.org/2000/svg" viewBox="0 0 512 512" role="img" aria-label="SaleMap">
  <rect width="512" height="512" rx="112" fill="#102033"/>
  <circle cx="256" cy="236" r="136" fill="#22c58b" opacity="0.18"/>
  <path d="M256 92c-78 0-142 63-142 141 0 105 142 194 142 194s142-89 142-194c0-78-64-141-142-141Z" fill="#22c58b"/>
  <circle cx="256" cy="233" r="54" fill="#ffffff"/>
  <path d="M168 386c33-24 68-36 104-36 31 0 56 8 72 22" fill="none" stroke="#ffffff" stroke-width="34" stroke-linecap="round"/>
  <path d="M168 131c-28 18-48 48-54 82M398 213c-6-34-26-64-54-82" fill="none" stroke="#ffffff" stroke-width="22" stroke-linecap="round" opacity="0.65"/>
</svg>
